<svg xmlns="http://www.w3.org/2000/svg" viewBox="0 0 242 67.76"><defs><style>.a{fill:#e41d1b;}</style></defs><title>Reebok logo icon</title><path class="a" d="M542.16,506.76c27.76-11.11,45-17.48,90.84-28.64-24.87,1.64-79.88,5.42-117.79,12.82l27,15.82" transform="translate(-391 -478.12)"/><path class="a" d="M455.85,543.58h36.3c7.19-10.88,14.34-16.19,22.67-22.1-6.31-2.43-12.64-4.79-19.08-7.07-23.16,10.22-36.05,24-39.86,29.16" transform="translate(-391 -478.12)"/><path class="a" d="M463,504c-32.36,11.57-50.36,24.13-62.5,39.61H440.6c3.91-5.43,18.78-21.11,46.72-32-7.7-2.61-21.09-6.79-24.29-7.6" transform="translate(-391 -478.12)"/><path class="a" d="M479.63,479.61H391c89.36,16.13,132.43,36.91,201.67,66.27-5.92-4.42-101.35-60.63-113-66.27" transform="translate(-391 -478.12)"/></svg>