<svg width="25" height="25" viewBox="0 0 25 25" fill="none" xmlns="http://www.w3.org/2000/svg">
<path fill-rule="evenodd" clip-rule="evenodd" d="M3.46558 2.71559C3.05136 2.71559 2.71558 3.05138 2.71558 3.46559C2.71558 3.8798 3.05136 4.21559 3.46558 4.21559H5.37999L5.73797 5.64749L7.51621 12.7605C6.48889 12.9687 5.71558 13.8768 5.71558 14.9656C5.71558 16.2082 6.72294 17.2156 7.96558 17.2156H19.4656C19.8798 17.2156 20.2156 16.8798 20.2156 16.4656C20.2156 16.0514 19.8798 15.7156 19.4656 15.7156H7.96558C7.55136 15.7156 7.21558 15.3798 7.21558 14.9656C7.21558 14.5514 7.55136 14.2156 7.96558 14.2156H8.46558H19.4656C19.8097 14.2156 20.1097 13.9814 20.1932 13.6475L22.1932 5.64749C22.2492 5.42344 22.1989 5.18607 22.0567 5.00403C21.9146 4.822 21.6965 4.71559 21.4656 4.71559H7.05116L6.69318 3.28369C6.60971 2.94981 6.30973 2.71559 5.96558 2.71559H3.46558ZM8.46558 18.7156C7.49908 18.7156 6.71558 19.4991 6.71558 20.4656C6.71558 21.4321 7.49908 22.2156 8.46558 22.2156C9.43207 22.2156 10.2156 21.4321 10.2156 20.4656C10.2156 19.4991 9.43207 18.7156 8.46558 18.7156ZM18.4656 18.7156C17.4991 18.7156 16.7156 19.4991 16.7156 20.4656C16.7156 21.4321 17.4991 22.2156 18.4656 22.2156C19.4321 22.2156 20.2156 21.4321 20.2156 20.4656C20.2156 19.4991 19.4321 18.7156 18.4656 18.7156Z" fill="black"/>
</svg>
